<mxfile host="app.diagrams.net" agent="Mozilla/5.0 (Windows NT 10.0; Win64; x64) AppleWebKit/537.36 (KHTML, like Gecko) Chrome/130.0.0.0 Safari/537.36" version="24.8.2">
  <diagram name="Página-1" id="U4pnoJ56wfcwgi-TTG06">
    <mxGraphModel grid="1" page="1" gridSize="10" guides="0" tooltips="1" connect="1" arrows="1" fold="1" pageScale="1" pageWidth="827" pageHeight="1169" math="0" shadow="0">
      <root>
        <mxCell id="0" />
        <mxCell id="1" parent="0" />
        <mxCell id="Nm5Tlj9VOFMtbSvhldb3-12" style="edgeStyle=orthogonalEdgeStyle;rounded=0;orthogonalLoop=1;jettySize=auto;html=1;endArrow=none;endFill=0;" edge="1" parent="1" source="Nm5Tlj9VOFMtbSvhldb3-1" target="Nm5Tlj9VOFMtbSvhldb3-2">
          <mxGeometry relative="1" as="geometry" />
        </mxCell>
        <mxCell id="Nm5Tlj9VOFMtbSvhldb3-28" style="edgeStyle=orthogonalEdgeStyle;rounded=0;orthogonalLoop=1;jettySize=auto;html=1;entryX=0;entryY=0.5;entryDx=0;entryDy=0;endArrow=none;endFill=0;" edge="1" parent="1" source="Nm5Tlj9VOFMtbSvhldb3-1" target="Nm5Tlj9VOFMtbSvhldb3-27">
          <mxGeometry relative="1" as="geometry" />
        </mxCell>
        <mxCell id="Nm5Tlj9VOFMtbSvhldb3-1" value="Jogador" style="shape=umlActor;verticalLabelPosition=bottom;verticalAlign=top;html=1;" vertex="1" parent="1">
          <mxGeometry x="80" y="120" width="30" height="60" as="geometry" />
        </mxCell>
        <mxCell id="Nm5Tlj9VOFMtbSvhldb3-15" style="edgeStyle=orthogonalEdgeStyle;rounded=0;orthogonalLoop=1;jettySize=auto;html=1;entryX=0;entryY=0.5;entryDx=0;entryDy=0;endArrow=none;endFill=0;" edge="1" parent="1" source="Nm5Tlj9VOFMtbSvhldb3-2" target="Nm5Tlj9VOFMtbSvhldb3-3">
          <mxGeometry relative="1" as="geometry" />
        </mxCell>
        <mxCell id="Nm5Tlj9VOFMtbSvhldb3-16" style="edgeStyle=orthogonalEdgeStyle;rounded=0;orthogonalLoop=1;jettySize=auto;html=1;endArrow=none;endFill=0;" edge="1" parent="1" source="Nm5Tlj9VOFMtbSvhldb3-2" target="Nm5Tlj9VOFMtbSvhldb3-6">
          <mxGeometry relative="1" as="geometry" />
        </mxCell>
        <mxCell id="Nm5Tlj9VOFMtbSvhldb3-24" style="edgeStyle=orthogonalEdgeStyle;rounded=0;orthogonalLoop=1;jettySize=auto;html=1;entryX=0;entryY=0.5;entryDx=0;entryDy=0;endArrow=none;endFill=0;" edge="1" parent="1" source="Nm5Tlj9VOFMtbSvhldb3-2" target="Nm5Tlj9VOFMtbSvhldb3-4">
          <mxGeometry relative="1" as="geometry" />
        </mxCell>
        <mxCell id="Nm5Tlj9VOFMtbSvhldb3-2" value="Iniciar novo jogo" style="ellipse;whiteSpace=wrap;html=1;" vertex="1" parent="1">
          <mxGeometry x="240" y="120" width="122" height="60" as="geometry" />
        </mxCell>
        <mxCell id="Nm5Tlj9VOFMtbSvhldb3-3" value="Escolher fase" style="ellipse;whiteSpace=wrap;html=1;" vertex="1" parent="1">
          <mxGeometry x="440" y="40" width="120" height="60" as="geometry" />
        </mxCell>
        <mxCell id="Nm5Tlj9VOFMtbSvhldb3-4" value="Editar personagem" style="ellipse;whiteSpace=wrap;html=1;" vertex="1" parent="1">
          <mxGeometry x="440" y="200" width="120" height="60" as="geometry" />
        </mxCell>
        <mxCell id="Nm5Tlj9VOFMtbSvhldb3-25" style="edgeStyle=orthogonalEdgeStyle;rounded=0;orthogonalLoop=1;jettySize=auto;html=1;endArrow=classicThin;endFill=1;dashed=1;startArrow=none;startFill=0;entryX=1;entryY=1;entryDx=0;entryDy=0;" edge="1" parent="1" source="Nm5Tlj9VOFMtbSvhldb3-5" target="Nm5Tlj9VOFMtbSvhldb3-2">
          <mxGeometry relative="1" as="geometry">
            <mxPoint x="170" y="150" as="targetPoint" />
          </mxGeometry>
        </mxCell>
        <mxCell id="Nm5Tlj9VOFMtbSvhldb3-26" value="&amp;lt;&amp;lt;extend&amp;gt;&amp;gt;" style="edgeLabel;html=1;align=center;verticalAlign=middle;resizable=0;points=[];" connectable="0" vertex="1" parent="Nm5Tlj9VOFMtbSvhldb3-25">
          <mxGeometry x="0.5669" y="-4" relative="1" as="geometry">
            <mxPoint x="-4" y="27" as="offset" />
          </mxGeometry>
        </mxCell>
        <mxCell id="Nm5Tlj9VOFMtbSvhldb3-5" value="Configurar jogo" style="ellipse;whiteSpace=wrap;html=1;" vertex="1" parent="1">
          <mxGeometry x="420" y="280" width="120" height="60" as="geometry" />
        </mxCell>
        <mxCell id="Nm5Tlj9VOFMtbSvhldb3-6" value="Aumentar nível" style="ellipse;whiteSpace=wrap;html=1;" vertex="1" parent="1">
          <mxGeometry x="440" y="120" width="120" height="60" as="geometry" />
        </mxCell>
        <mxCell id="Nm5Tlj9VOFMtbSvhldb3-22" value="Império de Azeitanaro" style="shape=umlFrame;whiteSpace=wrap;html=1;pointerEvents=0;width=100;height=30;" vertex="1" parent="1">
          <mxGeometry x="130" y="30" width="460" height="400" as="geometry" />
        </mxCell>
        <mxCell id="Nm5Tlj9VOFMtbSvhldb3-32" style="edgeStyle=orthogonalEdgeStyle;rounded=0;orthogonalLoop=1;jettySize=auto;html=1;dashed=1;endArrow=classicThin;endFill=1;" edge="1" parent="1" source="Nm5Tlj9VOFMtbSvhldb3-27" target="Nm5Tlj9VOFMtbSvhldb3-2">
          <mxGeometry relative="1" as="geometry" />
        </mxCell>
        <mxCell id="Nm5Tlj9VOFMtbSvhldb3-33" value="&amp;lt;&amp;lt;Include&amp;gt;&amp;gt;" style="edgeLabel;html=1;align=center;verticalAlign=middle;resizable=0;points=[];" connectable="0" vertex="1" parent="Nm5Tlj9VOFMtbSvhldb3-32">
          <mxGeometry x="-0.6212" y="-1" relative="1" as="geometry">
            <mxPoint as="offset" />
          </mxGeometry>
        </mxCell>
        <mxCell id="Nm5Tlj9VOFMtbSvhldb3-27" value="Continuar jogo" style="ellipse;whiteSpace=wrap;html=1;" vertex="1" parent="1">
          <mxGeometry x="240" y="340" width="120" height="60" as="geometry" />
        </mxCell>
      </root>
    </mxGraphModel>
  </diagram>
</mxfile>
